<?xml version="1.0" encoding="utf-8"?>
<!-- Generator: Adobe Illustrator 25.2.3, SVG Export Plug-In . SVG Version: 6.00 Build 0)  -->
<svg version="1.1" id="Layer_1" xmlns="http://www.w3.org/2000/svg" xmlns:xlink="http://www.w3.org/1999/xlink" x="0px" y="0px"
	 viewBox="0 0 56 56" style="enable-background:new 0 0 56 56;" xml:space="preserve">
<style type="text/css">
	.st0{fill-rule:evenodd;clip-rule:evenodd;fill:#17DE74;}
</style>
<g>
	<path class="st0" d="M41.7,6.8c-4.8,0-10,1-13.6,3.7c-3.6-2.7-8.8-3.7-13.6-3.7c-4.8,0-10.1,1-13.6,3.7v36.2c0,1.6,1.8,1.1,1.9,1.1
		c3.3-1.6,8.1-2.7,11.8-2.7c4.8,0,10,1,13.6,3.7c3.3-2.1,9.4-3.7,13.6-3.7c4.1,0,8.3,0.7,11.8,2.6c1,0.5,1.9-0.5,1.9-1.1V10.5
		C51.6,7.7,46.3,6.8,41.7,6.8L41.7,6.8z M50.4,41.4c-2.7-0.9-5.7-1.2-8.7-1.2c-4.2,0-10.3,1.6-13.6,3.7V15.5
		c3.3-2.1,9.4-3.7,13.6-3.7c3,0,6,0.4,8.7,1.2V41.4z"/>
</g>
</svg>
